<?xml version="1.0" encoding="UTF-8" standalone="no"?>
<!DOCTYPE svg PUBLIC "-//W3C//DTD SVG 1.1//EN" "http://www.w3.org/Graphics/SVG/1.1/DTD/svg11.dtd">
<svg width="1080px" height="1080px" version="1.1" xmlns="http://www.w3.org/2000/svg" xmlns:xlink="http://www.w3.org/1999/xlink" xml:space="preserve" xmlns:serif="http://www.serif.com/" style="fill-rule:evenodd;clip-rule:evenodd;stroke-linejoin:round;stroke-miterlimit:2;">
    <g transform="matrix(3.42813,0,0,3.42813,-298.928,-1107.28)">
        <path d="M200.54,601.443C190.373,610.289 179.185,612.572 161.673,612.572C150.61,612.572 142.524,610.463 137.415,606.244C132.305,602.026 129.751,596.916 129.751,590.916C129.751,585.479 131.743,580.908 135.727,577.205C139.712,573.502 144.329,571.651 149.579,571.651C160.454,571.651 166.735,577.463 168.423,589.088C169.266,594.994 171.845,597.947 176.157,597.947C180.563,597.947 184.571,594.01 188.18,586.135C191.79,578.26 196.173,562.369 201.329,538.463L205.688,518.072C207.001,513.197 207.938,509.354 208.501,506.541L222.704,441.291L204.423,441.291L209.204,425.682L225.938,425.682C234.751,393.619 245.04,372.361 256.805,361.908C268.571,351.455 282.61,346.229 298.923,346.229C309.798,346.229 318.68,348.338 325.571,352.557C332.462,356.776 335.907,362.401 335.907,369.432C335.907,374.119 334.243,378.221 330.915,381.736C327.587,385.252 323.345,387.01 318.188,387.01C310.782,387.01 304.407,381.807 299.063,371.401C295.126,363.619 291.141,359.729 287.11,359.729C282.423,359.729 278.813,365.963 276.282,378.432L267.001,425.682L287.954,425.682L283.173,441.291L263.485,441.291L249.423,504.291C248.275,509.409 247.074,514.344 245.819,519.099C261.568,500.227 278.52,490.791 296.673,490.791C304.454,490.791 310.29,492.596 314.18,496.205C318.071,499.815 320.016,504.385 320.016,509.916C320.016,512.541 319.524,515.776 318.54,519.619C317.555,523.463 312.329,541.135 302.86,572.635C300.423,580.697 299.204,585.338 299.204,586.557C299.204,589.088 300.376,590.354 302.72,590.354C304.97,590.354 307.501,589.041 310.313,586.416C313.126,583.791 316.22,579.854 319.595,574.604L335.907,574.604C330.001,586.229 322.243,595.463 312.634,602.307C303.024,609.151 292.641,612.572 281.485,612.572C265.079,612.572 256.876,605.916 256.876,592.604C256.876,587.26 260.766,572.682 268.548,548.869C272.86,535.838 275.016,527.869 275.016,524.963C275.016,520.932 273.141,518.916 269.391,518.916C263.391,518.916 255.821,525.479 246.68,538.604C237.611,551.626 214.708,589.115 200.54,601.443Z" style="fill:white;fill-rule:nonzero;"/>
    </g>
</svg>
